<?xml version="1.0" encoding="UTF-8"?>
<svg version="1.1" xmlns="http://www.w3.org/2000/svg" width="512" height="512">
<path d="M0 0 C1.06554108 0.46744125 2.13108215 0.93488251 3.22891235 1.41648865 C5.51849396 2.42222379 7.80591566 3.4328876 10.09136963 4.44796753 C14.88399661 6.57653328 19.68673458 8.6817762 24.48928833 10.78782654 C26.91108328 11.84994779 29.33236749 12.91323438 31.75314331 13.97767639 C42.22046145 18.5762634 52.73493198 23.05483465 63.28125 27.46875 C64.01561279 27.77651367 64.74997559 28.08427734 65.5065918 28.40136719 C71.23960732 30.80392211 76.97310847 33.20535924 82.71130371 35.59552002 C85.35793359 36.69821211 88.00325507 37.80399722 90.6484375 38.91015625 C91.48118195 39.25610336 92.31392639 39.60205048 93.17190552 39.95848083 C99.04282366 42.41782366 99.04282366 42.41782366 100.15625 43.53125 C100.25426963 45.67876649 100.27996154 47.82958074 100.27929783 49.97933292 C100.28045167 50.66427811 100.28160552 51.3492233 100.28279433 52.0549244 C100.2854676 54.37893017 100.28093304 56.70286839 100.27650452 59.02687073 C100.27694007 60.6982781 100.27781469 62.3696854 100.27909368 64.04109234 C100.28134169 68.65647901 100.2773132 73.27184272 100.27231562 77.88722646 C100.26801567 82.8558988 100.26945722 87.82456974 100.2702179 92.79324341 C100.27074342 101.40927502 100.26759365 110.02529909 100.26198006 118.64132881 C100.25386891 131.09881464 100.25125023 143.55629681 100.24999207 156.013785 C100.24780094 176.22297788 100.24113921 196.43216673 100.23168945 216.64135742 C100.2225169 236.27807597 100.2154353 255.91479342 100.21118164 275.55151367 C100.21091892 276.76098416 100.21065619 277.97045464 100.21038551 279.21657575 C100.20908052 285.28385397 100.2078168 291.35113219 100.20657361 297.41841042 C100.1961991 347.78936052 100.17775978 398.16030318 100.15625 448.53125 C50.98625 448.53125 1.81625 448.53125 -48.84375 448.53125 C-48.84375 418.83125 -48.84375 389.13125 -48.84375 358.53125 C-44.55375 357.87125 -40.26375 357.21125 -35.84375 356.53125 C-35.3965364 351.05299919 -35.3965364 351.05299919 -36.84375 348.53125 C-40.23989868 347.22242551 -43.35075086 347.58492333 -46.92578125 347.9050293 C-48.15385498 348.01231857 -49.38192871 348.11960785 -50.6472168 348.23014832 C-51.98362475 348.35457438 -53.31996791 348.47969817 -54.65625 348.60546875 C-56.03099832 348.73191896 -57.4057543 348.85828593 -58.78051758 348.98457336 C-61.65920124 349.2510773 -64.53724117 349.52366606 -67.41503906 349.79956055 C-71.09896784 350.15151984 -74.78456097 350.48052719 -78.47108459 350.80400372 C-81.31016221 351.05701901 -84.14754681 351.32614072 -86.98471069 351.59971046 C-88.34290503 351.72796713 -89.70167087 351.85031663 -91.0609436 351.96658897 C-92.96274494 352.13091912 -94.86234158 352.32018495 -96.76171875 352.51049805 C-97.84219482 352.61122116 -98.9226709 352.71194427 -100.03588867 352.8157196 C-103.35562355 353.6616913 -104.67343654 354.93711619 -106.84375 357.53125 C-106.18375 359.18125 -105.52375 360.83125 -104.84375 362.53125 C-100.88375 362.86125 -96.92375 363.19125 -92.84375 363.53125 C-92.84375 391.58125 -92.84375 419.63125 -92.84375 448.53125 C-104.72375 448.53125 -116.60375 448.53125 -128.84375 448.53125 C-128.84375 314.88125 -128.84375 181.23125 -128.84375 43.53125 C-28.24780273 0.41870117 -28.24780273 0.41870117 -25.96359253 -0.55020142 C-24.60449899 -1.13910999 -23.25421893 -1.74905988 -21.91653442 -2.38510132 C-13.44840256 -6.34742189 -8.02378258 -3.60143707 0 0 Z M9.15625 45.53125 C8.70586128 48.12434264 8.70586128 48.12434264 8.78151989 51.10821533 C8.77431335 52.2757925 8.7671068 53.44336967 8.75968188 54.64632797 C8.76705617 55.93511982 8.77443045 57.22391167 8.7820282 58.55175781 C8.77928917 59.92989535 8.77523844 61.3080308 8.76998454 62.68616104 C8.75936569 66.48179829 8.76754723 70.27720115 8.77873504 74.07282829 C8.78755521 78.16286129 8.77913988 82.25286288 8.77287292 86.34289551 C8.76337009 94.35866329 8.76999772 102.37434125 8.78213587 110.39010239 C8.79573647 119.7180765 8.79411973 129.04602906 8.79200254 138.37401056 C8.78881048 155.01368178 8.80049276 171.65331022 8.82006836 188.29296875 C8.83907344 204.45183617 8.84615617 220.61065346 8.84057617 236.76953125 C8.8345229 254.35102497 8.83468716 271.93249662 8.846062 289.51398849 C8.84726934 291.38754018 8.84847532 293.26109187 8.84967995 295.13464355 C8.85028349 296.05654928 8.85088702 296.97845501 8.85150885 297.92829728 C8.85539361 304.43563985 8.85499222 310.94297422 8.8530941 317.45031738 C8.85097533 325.37689563 8.85617201 333.30342989 8.87070765 341.22999573 C8.87796778 345.2768903 8.88201494 349.3237207 8.87746429 353.37062073 C8.87340381 357.0715548 8.87850765 360.77235607 8.89109037 364.47326994 C8.8954298 366.45423392 8.88991017 368.43521181 8.88410109 370.41617203 C8.88993329 371.5837492 8.89576548 372.75132637 8.90177441 373.95428467 C8.90264118 374.96613201 8.90350796 375.97797935 8.904401 377.02048874 C8.98294173 379.77924749 8.98294173 379.77924749 11.15625 382.53125 C14.21703911 382.92198904 16.24009818 383.17725846 18.82406104 381.35522217 C20.67207871 378.82500093 20.53226643 377.09235209 20.53377342 373.97269535 C20.54159666 372.80921827 20.54941991 371.6457412 20.55748022 370.44700724 C20.55078805 369.16278846 20.54409589 367.87856968 20.53720093 366.55543518 C20.5406557 365.18213447 20.54541905 363.80883654 20.55138266 362.43554443 C20.56394739 358.65324585 20.55769758 354.87117331 20.54842401 351.08887374 C20.54165608 347.01313141 20.55210354 342.93742885 20.56036377 338.86169434 C20.57372785 330.87367017 20.57081139 322.8857304 20.56212585 314.89770288 C20.55535973 308.40704955 20.55442793 301.91641993 20.5576973 295.42576408 C20.558157 294.50313015 20.55861669 293.58049622 20.55909032 292.62990369 C20.56004947 290.7557702 20.56102211 288.88163673 20.5620081 287.00750326 C20.57056995 269.41905975 20.56071565 251.83066308 20.544607 234.24222725 C20.53120532 219.14184872 20.53352913 204.04153938 20.54736328 188.94116211 C20.5634089 171.41861882 20.56974355 153.89611665 20.56052649 136.37356704 C20.55957081 134.50589526 20.5586277 132.63822348 20.5576973 130.77055168 C20.55723447 129.85155077 20.55677164 128.93254987 20.55629479 127.98570045 C20.55370168 121.50136253 20.55808286 115.01705064 20.56513596 108.53271675 C20.57353996 100.63250307 20.57129414 92.73237884 20.55529372 84.83217544 C20.54739579 80.79930331 20.54434516 76.76658045 20.55424118 72.73370934 C20.56315741 69.04438848 20.55830636 65.35535574 20.54230852 61.66606116 C20.53735108 59.69378591 20.54718476 57.72149077 20.55748022 55.74923617 C20.54965697 54.58315134 20.54183373 53.41706652 20.53377342 52.21564579 C20.53328637 51.20721593 20.53279931 50.19878607 20.53229749 49.15979773 C20.09554085 46.10689699 19.29775655 44.72445506 17.15625 42.53125 C13.27591933 41.85219213 11.50728601 42.39942016 9.15625 45.53125 Z M-45.51171875 49.5 C-46.31633545 49.86544922 -47.12095215 50.23089844 -47.94995117 50.60742188 C-48.96677979 51.07728516 -49.9836084 51.54714844 -51.03125 52.03125 C-54.269375 53.51625 -57.5075 55.00125 -60.84375 56.53125 C-60.84375 69.73125 -60.84375 82.93125 -60.84375 96.53125 C-49.50754443 93.69204397 -49.50754443 93.69204397 -37.84375 88.53125 C-37.84375 75.00125 -37.84375 61.47125 -37.84375 47.53125 C-41.08994345 47.53125 -42.59375673 48.16182634 -45.51171875 49.5 Z M38.93757534 56.23844814 C36.14354039 61.4032562 36.60966988 66.4342029 36.65504456 72.21607971 C36.64951016 73.52018278 36.64397576 74.82428584 36.63827366 76.16790718 C36.62350538 79.78613951 36.63370802 83.40393725 36.64801037 87.02215564 C36.65910851 90.92472476 36.64718147 94.82723233 36.63816833 98.72979736 C36.62422631 106.37400516 36.63179892 114.0180479 36.64684392 121.66224784 C36.66369181 130.56065403 36.66049534 139.45901897 36.65674984 148.35743617 C36.65086958 164.23173238 36.66504977 180.10594929 36.68969727 195.98022461 C36.71362257 211.39106213 36.72070017 226.80179372 36.71020508 242.21264648 C36.69880167 258.98735919 36.69685834 275.76202289 36.71130317 292.536735 C36.71282904 294.32461448 36.7143494 296.11249397 36.71586418 297.90037346 C36.716622 298.78008685 36.71737981 299.65980024 36.71816059 300.56617161 C36.72290757 306.77200736 36.72104908 312.97782126 36.71679878 319.18365669 C36.71187755 326.74347017 36.71783228 334.30318339 36.73769308 341.86297388 C36.74758004 345.72168509 36.75265513 349.58024351 36.74480057 353.43896294 C36.73646935 357.61725544 36.75129435 361.79513897 36.76856995 365.97340393 C36.7625599 367.19955447 36.75654986 368.42570501 36.75035769 369.68901163 C36.7630176 371.36313747 36.7630176 371.36313747 36.77593327 373.07108402 C36.7769624 374.03590106 36.77799152 375.0007181 36.77905184 375.99477202 C37.22597985 379.00015005 38.02689086 380.38332427 40.15625 382.53125 C43.19855823 383.03135524 43.19855823 383.03135524 46.15625 382.53125 C48.75823298 379.92926702 48.40751639 378.87313407 48.41072559 375.24912357 C48.41655779 374.1218548 48.42238998 372.99458603 48.42839891 371.8331576 C48.42461958 370.58425334 48.42084026 369.33534908 48.41694641 368.04859924 C48.42077196 366.73001968 48.42459751 365.41144011 48.42853898 364.05290359 C48.43887279 360.38047618 48.43662357 356.70814579 48.43235838 353.03571022 C48.42990087 349.07994828 48.43889314 345.12421031 48.44639587 341.16845703 C48.45917215 333.41393172 48.46093293 325.65944099 48.45859561 317.90490694 C48.45681555 311.60444165 48.45855536 305.3039869 48.46282005 299.00352287 C48.46341524 298.10821834 48.46401043 297.21291381 48.46462366 296.29047884 C48.46583536 294.4719081 48.46704949 292.65333736 48.46826603 290.83476662 C48.47915285 273.7642756 48.47697368 256.69380431 48.47088119 239.62331217 C48.46571099 223.99261343 48.47696814 208.361977 48.49597941 192.73129059 C48.51533212 176.69746092 48.52361833 160.66366076 48.51985615 144.62981933 C48.5179402 135.62172295 48.52046986 126.61367961 48.53457069 117.60559273 C48.54645283 109.93699535 48.54792516 102.26848366 48.53578053 94.59988517 C48.52986945 90.68460372 48.52885344 86.76947922 48.54078293 82.85420799 C48.55156667 79.27346138 48.548629 75.69300418 48.53452124 72.11227154 C48.53058475 70.19587063 48.54148246 68.27945723 48.55281812 66.36308581 C48.5420083 64.66827103 48.5420083 64.66827103 48.53098011 62.93921757 C48.53103513 61.96024354 48.53109014 60.98126951 48.53114682 59.97262961 C48.33412969 57.50128161 48.33412969 57.50128161 46.88282937 55.69325203 C43.83310443 53.64076222 41.72773366 54.09151187 38.93757534 56.23844814 Z M68.0000357 68.19940132 C65.778739 71.00869081 65.65608518 72.29848331 65.65567875 75.8408289 C65.64095731 77.46455389 65.64095731 77.46455389 65.62593848 79.12108141 C65.63554348 80.30968671 65.64514849 81.49829201 65.65504456 82.72291565 C65.64951016 83.98603433 65.64397576 85.24915301 65.63827366 86.55054802 C65.62348941 90.05895898 65.6337174 93.56692248 65.64801037 97.07531917 C65.65909949 100.85791369 65.64718448 104.64044438 65.63816833 108.42303467 C65.62422014 115.83376378 65.63180344 123.24432275 65.64684392 130.65504379 C65.66368428 139.28009722 65.6604963 147.90510803 65.65674984 156.53017282 C65.65086846 171.91590161 65.66505419 187.30154861 65.68969727 202.68725586 C65.71362304 217.62674017 65.72070026 232.56611521 65.71020508 247.50561523 C65.69880392 263.76392146 65.69685554 280.02217711 65.71130317 296.28048271 C65.71282906 298.01303255 65.71434941 299.7455824 65.71586418 301.47813225 C65.716622 302.33064023 65.71737981 303.18314822 65.71816059 304.06148978 C65.7229093 310.07792771 65.72104786 316.09434312 65.71679878 322.11078072 C65.7118796 329.43898425 65.71782305 336.76708434 65.73769308 344.09526414 C65.747586 347.8363806 65.75264878 351.57733932 65.74480057 355.31846428 C65.73647899 359.36798263 65.75128285 363.41707815 65.76856995 367.46656799 C65.7625599 368.65740401 65.75654986 369.84824003 65.75035769 371.07516199 C65.75879763 372.15503758 65.76723757 373.23491316 65.77593327 374.34751225 C65.7769624 375.28287345 65.77799152 376.21823465 65.77905184 377.18194014 C66.22784276 379.97715241 66.89706017 380.87132541 69.15625 382.53125 C71.97845802 382.9545812 73.45764778 383.0445433 75.7887302 381.33179611 C77.63067554 378.90659721 77.53323206 377.3783488 77.53656673 374.34751225 C77.54500668 373.26763666 77.55344662 372.18776108 77.56214231 371.07516199 C77.55613227 369.88432597 77.55012222 368.69348995 77.54393005 367.46656799 C77.55200836 365.57422996 77.55200836 365.57422996 77.56024987 363.64366287 C77.57475657 360.13500349 77.57044362 356.62657796 77.56308305 353.1179055 C77.55836651 349.3366376 77.57084777 345.55542142 77.58110046 341.77416992 C77.5983237 334.36367272 77.59912119 326.95326018 77.59388756 319.54274816 C77.58985113 313.52120076 77.59128313 307.49967844 77.59663582 301.47813225 C77.59738424 300.62210699 77.59813266 299.76608172 77.59890376 298.8841163 C77.60043519 297.14527082 77.60197354 295.40642535 77.60351873 293.66757988 C77.61725654 277.34958118 77.61179712 261.03163038 77.60033352 244.71363275 C77.59039996 229.77556872 77.60334165 214.83762852 77.62726771 199.89958359 C77.65163333 184.57196818 77.66127283 169.24441051 77.65461498 153.91677612 C77.65111708 145.30715232 77.65339233 136.6976238 77.67086601 128.0880146 C77.68555634 120.75870466 77.68626516 113.42955708 77.6687951 106.10025043 C77.66025637 102.35896503 77.65820497 98.61797004 77.67344666 94.87669945 C77.68974818 90.82520048 77.67520719 86.77440824 77.65745544 82.72291565 C77.66706045 81.53431035 77.67666546 80.34570505 77.68656152 79.12108141 C77.67184009 77.49735642 77.67184009 77.49735642 77.65682125 75.8408289 C77.65671391 74.90530534 77.65660658 73.96978178 77.65649599 73.00590903 C76.99949722 69.75581212 75.74914192 68.53723618 73.15625 66.53125 C70.09735499 66.22529826 70.09735499 66.22529826 68.0000357 68.19940132 Z M-94.34375 70.46875 C-95.23707031 70.84193359 -96.13039063 71.21511719 -97.05078125 71.59960938 C-97.90027344 71.95732422 -98.74976563 72.31503906 -99.625 72.68359375 C-100.40939453 73.01351318 -101.19378906 73.34343262 -102.00195312 73.68334961 C-103.81889887 74.39086131 -103.81889887 74.39086131 -104.84375 75.53125 C-104.93236992 78.3428838 -104.95897355 81.12983255 -104.94140625 83.94140625 C-104.9399913 84.78344101 -104.93857635 85.62547577 -104.93711853 86.49302673 C-104.93150263 89.19330335 -104.91894748 91.89349828 -104.90625 94.59375 C-104.90123705 96.41992068 -104.89667379 98.24609266 -104.89257812 100.07226562 C-104.88152804 104.55862542 -104.86425279 109.04492384 -104.84375 113.53125 C-101.52962205 112.3900875 -98.21774007 111.24254255 -94.90625 110.09375 C-93.96072266 109.76826172 -93.01519531 109.44277344 -92.04101562 109.10742188 C-91.14189453 108.79482422 -90.24277344 108.48222656 -89.31640625 108.16015625 C-88.06742554 107.7281189 -88.06742554 107.7281189 -86.79321289 107.28735352 C-84.87041909 106.69244007 -84.87041909 106.69244007 -83.84375 105.53125 C-83.75509792 102.6469118 -83.72853704 99.78662842 -83.74609375 96.90234375 C-83.7475087 96.03811295 -83.74892365 95.17388214 -83.75038147 94.28346252 C-83.75599761 91.51185708 -83.76855281 88.7403312 -83.78125 85.96875 C-83.78626292 84.0944022 -83.79082619 82.22005315 -83.79492188 80.34570312 C-83.80597228 75.74085456 -83.8232477 71.13606579 -83.84375 66.53125 C-87.22331703 66.53125 -91.27061747 69.17164861 -94.34375 70.46875 Z M-60.84375 123.53125 C-60.84375 137.72125 -60.84375 151.91125 -60.84375 166.53125 C-50.24537208 164.58652186 -50.24537208 164.58652186 -37.84375 160.53125 C-37.84375 146.01125 -37.84375 131.49125 -37.84375 116.53125 C-45.85762685 116.53125 -53.27978536 120.88386238 -60.84375 123.53125 Z M-90.1953125 133.0625 C-91.34507568 133.48885742 -91.34507568 133.48885742 -92.51806641 133.92382812 C-93.49179199 134.28927734 -94.46551758 134.65472656 -95.46875 135.03125 C-98.5625 136.18625 -101.65625 137.34125 -104.84375 138.53125 C-104.84375 151.73125 -104.84375 164.93125 -104.84375 178.53125 C-95.87863307 177.64524019 -95.87863307 177.64524019 -83.84375 173.53125 C-83.84375 159.67125 -83.84375 145.81125 -83.84375 131.53125 C-86.27394273 131.53125 -87.91623152 132.2116431 -90.1953125 133.0625 Z M-48.78125 189.96875 C-50.18020508 190.31389648 -50.18020508 190.31389648 -51.60742188 190.66601562 C-52.49880859 190.88837891 -53.39019531 191.11074219 -54.30859375 191.33984375 C-55.54017212 191.64619751 -55.54017212 191.64619751 -56.79663086 191.95874023 C-58.88578073 192.47318607 -58.88578073 192.47318607 -60.84375 193.53125 C-60.84375 207.72125 -60.84375 221.91125 -60.84375 236.53125 C-53.14021546 235.43074507 -45.44018879 234.21934751 -37.84375 232.53125 C-37.84375 217.68125 -37.84375 202.83125 -37.84375 187.53125 C-41.42692919 187.53125 -45.3227739 189.10472603 -48.78125 189.96875 Z M-96.03125 201.46875 C-97.13629883 201.74235352 -97.13629883 201.74235352 -98.26367188 202.02148438 C-101.84673449 202.69037938 -101.84673449 202.69037938 -104.84375 204.53125 C-104.93243299 207.48830321 -104.95895296 210.42190056 -104.94140625 213.37890625 C-104.9399913 214.2653331 -104.93857635 215.15175995 -104.93711853 216.06504822 C-104.93150215 218.90798254 -104.91894691 221.75083931 -104.90625 224.59375 C-104.90123711 226.51627491 -104.89667384 228.43880104 -104.89257812 230.36132812 C-104.88152741 235.08466549 -104.86425183 239.80794458 -104.84375 244.53125 C-103.85145386 244.44496338 -103.85145386 244.44496338 -102.83911133 244.35693359 C-101.26123047 244.21972656 -99.68334961 244.08251953 -98.10546875 243.9453125 C-93.32232615 243.33811116 -88.58750778 242.39375142 -83.84375 241.53125 C-83.84375 227.67125 -83.84375 213.81125 -83.84375 199.53125 C-88.15372464 199.53125 -91.89557733 200.40634164 -96.03125 201.46875 Z M-49.90625 260.96875 C-50.84275391 261.10345703 -51.77925781 261.23816406 -52.74414062 261.37695312 C-53.63423828 261.50908203 -54.52433594 261.64121094 -55.44140625 261.77734375 C-56.26133057 261.89779053 -57.08125488 262.0182373 -57.92602539 262.14233398 C-59.84414304 262.34749015 -59.84414304 262.34749015 -60.84375 263.53125 C-60.93643999 264.88219982 -60.96122326 266.23792091 -60.95727539 267.59204102 C-60.95719986 268.45285782 -60.95712433 269.31367462 -60.95704651 270.20057678 C-60.95188522 271.13598801 -60.94672394 272.07139923 -60.94140625 273.03515625 C-60.9399913 273.98817123 -60.93857635 274.94118622 -60.93711853 275.92308044 C-60.93150152 278.98000165 -60.91894616 282.03685077 -60.90625 285.09375 C-60.90123719 287.16080624 -60.89667391 289.22786362 -60.89257812 291.29492188 C-60.88152656 296.37372588 -60.86425055 301.4524757 -60.84375 306.53125 C-58.5101973 306.38844144 -56.17695412 306.24206563 -53.84375 306.09375 C-51.93880208 305.97469076 -50.03385417 305.85563151 -48.12890625 305.73657227 C-44.69090882 305.42766673 -41.26894159 304.95939895 -37.84375 304.53125 C-37.84375 289.68125 -37.84375 274.83125 -37.84375 259.53125 C-41.88773561 259.53125 -45.91302945 260.37542421 -49.90625 260.96875 Z M-104.84375 269.53125 C-104.84375 283.06125 -104.84375 296.59125 -104.84375 310.53125 C-94.24484291 310.1775087 -94.24484291 310.1775087 -83.84375 308.53125 C-83.84375 294.67125 -83.84375 280.81125 -83.84375 266.53125 C-90.91481781 266.53125 -97.85091399 268.4823246 -104.84375 269.53125 Z " fill="#3A8DFF" transform="translate(358.84375,15.46875)"/>
<path d="M0 0 C1.46111771 0.60035757 2.92328674 1.19816262 4.38647461 1.79345703 C5.89344591 2.44436272 7.39869049 3.09927808 8.90234375 3.7578125 C9.70611954 4.1063327 10.50989532 4.45485291 11.33802795 4.81393433 C13.87274259 5.91407972 16.4051124 7.01951031 18.9375 8.125 C20.66196346 8.87403394 22.38657163 9.62273481 24.11132812 10.37109375 C36.55102397 15.77551199 36.55102397 15.77551199 39 17 C39 121.28 39 225.56 39 333 C10.95 333 -17.1 333 -46 333 C-46 309.57 -46 286.14 -46 262 C-42.04 261.34 -38.08 260.68 -34 260 C-31.77261893 257.31328252 -31.77261893 257.31328252 -32.125 254.9375 C-32.84611167 252.89190466 -32.84611167 252.89190466 -34.67356873 251.85966492 C-37.70588682 250.73916008 -39.88332865 250.98739762 -43.09790039 251.30786133 C-44.32920181 251.42490921 -45.56050323 251.54195709 -46.82911682 251.66255188 C-48.16866688 251.80202426 -49.5081792 251.94185945 -50.84765625 252.08203125 C-52.22471605 252.21794775 -53.6018695 252.35291847 -54.97911072 252.48698425 C-57.86225064 252.77004433 -60.74447246 253.06077678 -63.6262207 253.35766602 C-67.31963725 253.73809372 -71.01421445 254.10521099 -74.70946598 254.4673357 C-78.23516114 254.81343511 -81.76017313 255.16626622 -85.28515625 255.51953125 C-85.9576195 255.58633402 -86.63008274 255.65313679 -87.32292366 255.72196388 C-89.22615586 255.91224307 -91.12884063 256.10797404 -93.03149414 256.30395508 C-94.11419083 256.41435623 -95.19688751 256.52475739 -96.31239319 256.63850403 C-99.09356777 256.92733266 -99.09356777 256.92733266 -102 258 C-102.67801034 260.90073181 -102.67801034 260.90073181 -103 264 C-100.05066065 267.37996752 -100.05066065 267.37996752 -89 267 C-89 288.78 -89 310.56 -89 333 C-101.54 333 -114.08 333 -127 333 C-127 238.95 -127 144.9 -127 48 C-115.75042677 42.37521338 -115.75042677 42.37521338 -111.76464844 40.68603516 C-110.85662979 40.29937683 -109.94861115 39.91271851 -109.01307678 39.51434326 C-108.05485519 39.11000061 -107.09663361 38.70565796 -106.109375 38.2890625 C-104.55113258 37.6264743 -104.55113258 37.6264743 -102.96141052 36.95050049 C-98.37893751 35.00332135 -93.79257892 33.06538772 -89.20596313 31.12799072 C-85.54436822 29.58128172 -81.88330182 28.03332903 -78.22265625 26.484375 C-77.60305338 26.22240704 -76.98345051 25.96043907 -76.34507179 25.69053268 C-67.40302734 21.90719986 -58.50423589 18.03498742 -49.62857437 14.09863663 C-45.33797455 12.20001441 -41.03828211 10.32201575 -36.7401123 8.44061279 C-34.38131677 7.40110717 -32.02698643 6.35140679 -29.67736816 5.2913208 C-26.39351267 3.81102663 -23.09579689 2.36704137 -19.79296875 0.9296875 C-18.82959091 0.48409485 -17.86621307 0.0385022 -16.87364197 -0.42059326 C-10.17417231 -3.27790631 -6.51725434 -3.11006018 0 0 Z M-52.7578125 49.49609375 C-53.46550781 49.80740234 -54.17320313 50.11871094 -54.90234375 50.43945312 C-55.63582031 50.76880859 -56.36929688 51.09816406 -57.125 51.4375 C-57.86621094 51.76298828 -58.60742188 52.08847656 -59.37109375 52.42382812 C-62.9362978 53.8160081 -62.9362978 53.8160081 -66 56 C-66.0883967 58.3756852 -66.11530305 60.72208674 -66.09765625 63.09765625 C-66.0962413 63.80651474 -66.09482635 64.51537323 -66.09336853 65.24571228 C-66.08775443 67.51801712 -66.07519963 69.79022475 -66.0625 72.0625 C-66.05748681 73.59960796 -66.05292359 75.13671745 -66.04882812 76.67382812 C-66.03778042 80.44925642 -66.02050641 84.22461171 -66 88 C-58.51076542 86.93364796 -58.51076542 86.93364796 -46 82 C-46 70.78 -46 59.56 -46 48 C-48.9423856 48 -50.1469358 48.34057151 -52.7578125 49.49609375 Z M-101 70 C-101 80.23 -101 90.46 -101 101 C-98.545625 100.195625 -96.09125 99.39125 -93.5625 98.5625 C-92.78849854 98.31056885 -92.01449707 98.0586377 -91.21704102 97.79907227 C-87.84304796 96.8804704 -87.84304796 96.8804704 -85 95 C-84.91209025 92.70848583 -84.89305962 90.41427476 -84.90234375 88.12109375 C-84.9037587 87.4344313 -84.90517365 86.74776886 -84.90663147 86.04029846 C-84.91224521 83.83932199 -84.92479993 81.63844591 -84.9375 79.4375 C-84.94251324 77.94856917 -84.94707645 76.45963676 -84.95117188 74.97070312 C-84.96221907 71.31376925 -84.97949287 67.65689442 -85 64 C-90.6960025 64 -95.76454761 67.75623469 -101 70 Z M-51.25390625 105.3125 C-52.0229126 105.55613281 -52.79191895 105.79976563 -53.58422852 106.05078125 C-54.56705811 106.36402344 -55.5498877 106.67726563 -56.5625 107 C-59.676875 107.99 -62.79125 108.98 -66 110 C-66 121.55 -66 133.1 -66 145 C-57.25795657 144.0701933 -57.25795657 144.0701933 -46 141 C-46 128.79 -46 116.58 -46 104 C-47.81993761 104 -49.53344651 104.76559889 -51.25390625 105.3125 Z M-101 121 C-101 131.89 -101 142.78 -101 154 C-90.84706389 152.53149107 -90.84706389 152.53149107 -85 150 C-85 139.11 -85 128.22 -85 117 C-90.49747417 117 -95.74562959 119.38327064 -101 121 Z M-66 167 C-66 178.88 -66 190.76 -66 203 C-59.4 202.01 -52.8 201.02 -46 200 C-46 188.12 -46 176.24 -46 164 C-52.73235919 163.83656989 -52.73235919 163.83656989 -66 167 Z M-95.25 172.9375 C-96.55710937 173.19853516 -96.55710937 173.19853516 -97.890625 173.46484375 C-99.97199643 173.80149437 -99.97199643 173.80149437 -101 175 C-101.0883967 177.3756852 -101.11530305 179.72208674 -101.09765625 182.09765625 C-101.0962413 182.80651474 -101.09482635 183.51537323 -101.09336853 184.24571228 C-101.08775443 186.51801712 -101.07519963 188.79022475 -101.0625 191.0625 C-101.05748681 192.59960796 -101.05292359 194.13671745 -101.04882812 195.67382812 C-101.03778042 199.44925642 -101.02050641 203.22461171 -101 207 C-98.70800823 206.85936865 -96.41640814 206.71234057 -94.125 206.5625 C-92.84882812 206.48128906 -91.57265625 206.40007812 -90.2578125 206.31640625 C-87.11699848 206.20793973 -87.11699848 206.20793973 -85 205 C-85 194.11 -85 183.22 -85 172 C-88.77681823 172 -91.63115608 172.19531195 -95.25 172.9375 Z " fill="#3380FF" transform="translate(180,131)"/>
<path d="M0 0 C161.7 0 323.4 0 490 0 C490 8.25 490 16.5 490 25 C328.3 25 166.6 25 0 25 C0 16.75 0 8.5 0 0 Z " fill="#1853FF" transform="translate(11,476)"/>
</svg>
